# xmcd
#
# Track frame offsets:
#	150
#	17930
#	37911
#	55799
#	78867
#	95689
#	111200
#	131246
#	149929
#	171126
#	186166
#	203110
#	226442
#
# Disc length: 3266 seconds
#
# Revision: 3
# Processed by: cddbd v1.5.1PL0 Copyright (c) Steve Scherf et al.
# Submitted via: dBpowerAMP V4.0
#
DISCID=b90cc00d
DTITLE=Bacilos - Caraluna
DYEAR=2002
DGENRE=Latin
TTITLE0=Mi Primer Millon
TTITLE1=Caraluna
TTITLE2=Solo Un Segundo
TTITLE3=Viejo
TTITLE4=Odio El Silencio
TTITLE5=Nada Especial
TTITLE6=Barcelona
TTITLE7=El Edificio
TTITLE8=Nada
TTITLE9=Elena
TTITLE10=Buena
TTITLE11=Tabaco Y Chanel
TTITLE12=Lo Mismo Que Yo
EXTD=
EXTT0=
EXTT1=
EXTT2=
EXTT3=
EXTT4=
EXTT5=
EXTT6=
EXTT7=
EXTT8=
EXTT9=
EXTT10=
EXTT11=
EXTT12=
PLAYORDER=
